<?xml version="1.0" encoding="UTF-8"?>
<svg width="239px" height="44px" viewBox="0 0 239 44" version="1.1" xmlns="http://www.w3.org/2000/svg" xmlns:xlink="http://www.w3.org/1999/xlink">
    <!-- Generator: Sketch 56.3 (81716) - https://sketch.com -->
    <title>logo/wbg</title>
    <desc>Created with Sketch.</desc>
    <defs>
        <polygon id="path-1" points="0.282613724 0.310626481 17.2176457 0.310626481 17.2176457 23.2798008 0.282613724 23.2798008"></polygon>
    </defs>
    <g id="Page-2" stroke="none" stroke-width="1" fill="none" fill-rule="evenodd">
        <g id="Homepage-A" transform="translate(-117.000000, -27.000000)">
            <g id="menu">
                <g id="Group-4" transform="translate(117.000000, 27.000000)">
                    <g id="logo/wbg">
                        <g id="Group-24">
                            <path d="M17.7349995,15.4738577 L17.7349995,11.9826624 C17.7349995,11.8450808 17.6270066,11.7343201 17.4939438,11.7343201 L0.24110393,11.7343201 C0.107559062,11.7343201 4.82111437e-05,11.8450808 4.82111437e-05,11.9826624 L4.82111437e-05,15.4738577 C4.82111437e-05,15.6109426 0.107559062,15.7221999 0.24110393,15.7221999 L6.68548751,15.7221999 L6.68548751,34.4551522 C6.68548751,34.5922371 6.79348047,34.7034945 6.92654323,34.7034945 L10.8085045,34.7034945 C10.9415673,34.7034945 11.0495602,34.5922371 11.0495602,34.4551522 L11.0495602,15.7221999 L17.4939438,15.7221999 C17.6270066,15.7221999 17.7349995,15.6109426 17.7349995,15.4738577" id="Fill-1" fill="#003955"></path>
                            <path d="M26.1700694,25.6364694 L29.2367803,17.4396852 L32.2480483,25.6364694 L26.1700694,25.6364694 Z M31.247185,11.8842692 C31.2090982,11.7933759 31.121836,11.7342705 31.0258958,11.7342705 L27.6675076,11.7342705 C27.5715674,11.7342705 27.4852694,11.7928792 27.4467005,11.8837725 L17.9573011,34.3562623 C17.9249996,34.4327517 17.9322313,34.5211616 17.9770677,34.5911941 C18.0214219,34.6612266 18.0971134,34.7034448 18.1785903,34.7034448 L22.5224143,34.7034448 C22.6212472,34.7034448 22.7099557,34.6413592 22.746114,34.5459958 L24.658168,29.5607736 L33.7908049,29.5607736 L35.7626407,34.5484792 C35.7997633,34.6423526 35.8879897,34.7034448 35.9858583,34.7034448 L40.4227299,34.7034448 C40.5037246,34.7034448 40.5798982,34.6612266 40.6242524,34.5911941 C40.6686067,34.522155 40.6763205,34.4337451 40.644019,34.356759 L31.247185,11.8842692 Z" id="Fill-3" fill="#003955"></path>
                            <path d="M56.793113,18.4893782 C56.793113,19.114704 56.6716209,19.6243023 56.4315294,20.0047626 C56.1885452,20.3896931 55.8563704,20.6971408 55.4432009,20.9196554 C55.0165323,21.1491237 54.5228502,21.3120362 53.9766179,21.4019361 C53.4164045,21.4948161 52.8181042,21.5420011 52.1971446,21.5420011 L49.7268056,21.5420011 L49.7268056,15.5956944 L52.320083,15.5956944 C52.9024737,15.5956944 53.4781147,15.6319523 54.0306144,15.7044683 C54.565276,15.7749975 55.0464232,15.9215194 55.460557,16.1390672 C55.8640842,16.3521449 56.1909558,16.6501556 56.4329757,17.024159 C56.672103,17.3936922 56.793113,17.8864033 56.793113,18.4893782 M58.8372655,13.2722043 C58.0957781,12.7268447 57.1961581,12.3290005 56.1620291,12.0891019 C55.1428455,11.8536734 53.985296,11.7339724 52.7207177,11.7339724 L45.6037886,11.7339724 C45.4707259,11.7339724 45.3627329,11.8452298 45.3627329,11.9823147 L45.3627329,34.4553012 C45.3627329,34.5923861 45.4707259,34.7036435 45.6037886,34.7036435 L49.4857499,34.7036435 C49.6188127,34.7036435 49.7268056,34.5923861 49.7268056,34.4553012 L49.7268056,25.4032264 L52.4743587,25.4032264 C53.6376936,25.4032264 54.7537816,25.2840221 55.7917675,25.0485936 C56.8432526,24.8096884 57.7771024,24.4187977 58.5677652,23.8868486 C59.367588,23.3484426 60.0112068,22.6302368 60.4803012,21.7511053 C60.9498778,20.871477 61.1880408,19.7738043 61.1880408,18.4893782 C61.1880408,17.2943553 60.9826613,16.2538013 60.5781699,15.3970206 C60.172232,14.5387498 59.5864666,13.8235241 58.8372655,13.2722043" id="Fill-5" fill="#003955"></path>
                            <path d="M70.421198,15.595595 L73.0149575,15.595595 C73.5973482,15.595595 74.1729892,15.631853 74.7250068,15.7043689 C75.2591863,15.7748981 75.7408156,15.9209234 76.1554314,16.1389679 C76.5584766,16.3520455 76.8853482,16.6500562 77.1273681,17.0240596 C77.3664954,17.3935929 77.4875053,17.8863039 77.4875053,18.4892789 C77.4875053,19.1146047 77.3660133,19.624203 77.1259218,20.0046633 C76.8829376,20.3895938 76.5507628,20.6970415 76.1380754,20.9195561 C75.7118889,21.149521 75.2177247,21.3119369 74.6710103,21.4018367 C74.1107968,21.4947167 73.5124965,21.5419018 72.891537,21.5419018 L70.421198,21.5419018 L70.421198,15.595595 Z M79.5316578,13.272105 C78.7901704,12.7272421 77.8905505,12.3289011 76.8573857,12.0890025 C75.83772,11.8535741 74.6801704,11.7343698 73.41511,11.7343698 L66.298181,11.7343698 C66.1651182,11.7343698 66.0571253,11.8451304 66.0571253,11.982712 L66.0571253,34.4552019 C66.0571253,34.5922868 66.1651182,34.7035441 66.298181,34.7035441 L70.1801423,34.7035441 C70.313205,34.7035441 70.421198,34.5922868 70.421198,34.4552019 L70.421198,25.403127 L73.1687511,25.403127 C74.332086,25.403127 75.448174,25.2839227 76.4861599,25.0484943 C77.5376449,24.8100857 78.4714948,24.419195 79.2626396,23.8867493 C80.0624625,23.3483433 80.7055992,22.6301375 81.1751757,21.7515026 C81.6442701,20.8713777 81.8824332,19.773705 81.8824332,18.4892789 C81.8824332,17.294256 81.6775358,16.253702 81.2725622,15.3974179 C80.8666244,14.5386504 80.280859,13.8239215 79.5316578,13.272105 L79.5316578,13.272105 Z" id="Fill-7" fill="#003955"></path>
                            <path d="M107.435496,3.08391401 C97.3911867,3.08391401 89.2174694,11.5056963 89.2174694,21.8541176 C89.2174694,32.2020424 97.3911867,40.6218379 107.435496,40.6218379 C117.481735,40.6218379 125.653041,32.2020424 125.653041,21.8541176 C125.653041,11.5056963 117.481735,3.08391401 107.435496,3.08391401 M107.435496,43.7082353 C95.7389909,43.7082353 86.221629,33.9046768 86.221629,21.8541176 C86.221629,9.80256513 95.7389909,0 107.435496,0 C119.132966,0 128.648882,9.80256513 128.648882,21.8541176 C128.648882,33.9046768 119.132966,43.7082353 107.435496,43.7082353" id="Fill-9" fill="#003955"></path>
                            <path d="M100.972793,14.2956724 L113.920859,14.3552745 L107.475512,21.547266 L100.972793,14.2956724 Z M105.569725,28.7690585 L107.436461,25.4829939 L109.266556,28.7089597 L109.300303,28.7655817 C109.878355,29.6755077 109.758791,30.8948681 109.016822,31.6652258 C108.29703,32.4067757 107.071502,32.5423706 106.209487,31.9577729 C105.179697,31.2599312 104.893323,29.8284865 105.569725,28.7690585 L105.569725,28.7690585 Z M116.926824,13.0072728 C116.638522,12.3243316 115.984779,11.8812891 115.262093,11.8778123 L99.6281838,11.8062897 C98.9054988,11.8062897 98.2498272,12.2468489 97.9586319,12.9287967 C97.6659903,13.6137246 97.7951961,14.4113999 98.2883961,14.9617263 L105.837297,23.3805284 L103.541482,27.427017 C102.15493,29.627826 102.757569,32.5910456 104.885127,34.032424 C105.644452,34.5469892 106.526234,34.819669 107.444174,34.8201656 C108.664881,34.8201656 109.860035,34.309574 110.724461,33.4180253 C112.257093,31.8296283 112.512612,29.3104446 111.337706,27.4384407 L109.066479,23.4336737 L116.595132,15.0322555 C117.084957,14.4849092 117.215609,13.6897173 116.926824,13.0072728 L116.926824,13.0072728 Z" id="Fill-11" fill="#003955"></path>
                            <path d="M166.107832,11.8336074 C166.062031,11.7710251 165.990678,11.7342705 165.914987,11.7342705 L161.786667,11.7342705 C161.67771,11.7342705 161.582251,11.8092698 161.554289,11.9180437 L156.107394,27.6857896 L151.120915,11.9125802 C151.091025,11.8067864 150.996531,11.7342705 150.889984,11.7342705 L146.884602,11.7342705 C146.778056,11.7342705 146.684526,11.805793 146.653671,11.9110901 L141.578002,27.6847962 L136.220779,11.9195338 C136.192817,11.8102632 136.097359,11.7342705 135.987437,11.7342705 L131.736179,11.7342705 C131.660487,11.7342705 131.588653,11.7710251 131.543334,11.8336074 C131.498016,11.8961896 131.483552,11.9771492 131.505247,12.0521485 L139.690535,34.5251351 C139.720426,34.6304322 139.81492,34.7034448 139.921949,34.7034448 L143.680008,34.7034448 C143.78559,34.7034448 143.87912,34.6324189 143.910457,34.5291085 L148.825583,18.3312339 L153.740709,34.5291085 C153.772046,34.6324189 153.865094,34.7034448 153.970676,34.7034448 L157.729217,34.7034448 C157.836246,34.7034448 157.930739,34.6304322 157.96063,34.5251351 L166.145918,12.0521485 C166.167613,11.9771492 166.15315,11.8961896 166.107832,11.8336074" id="Fill-13" fill="#00AAA8"></path>
                            <path d="M176.676148,25.6364694 L170.598651,25.6364694 L173.664398,17.4396852 L176.676148,25.6364694 Z M175.674803,11.8842692 C175.636716,11.7933759 175.549454,11.7342705 175.453514,11.7342705 L172.095125,11.7342705 C171.999185,11.7342705 171.912405,11.7928792 171.874318,11.8837725 L162.384437,34.3562623 C162.352617,34.4327517 162.359849,34.5211616 162.404203,34.5911941 C162.448558,34.6612266 162.524249,34.7034448 162.605726,34.7034448 L166.950514,34.7034448 C167.049347,34.7034448 167.138538,34.6413592 167.174696,34.5459958 L169.085786,29.5607736 L178.218423,29.5607736 L180.190741,34.5484792 C180.227381,34.6423526 180.31609,34.7034448 180.413958,34.7034448 L184.850348,34.7034448 C184.931342,34.7034448 185.007034,34.6612266 185.05187,34.5911941 C185.096224,34.522155 185.103456,34.4337451 185.071637,34.356759 L175.674803,11.8842692 Z" id="Fill-15" fill="#00AAA8"></path>
                            <path d="M200.131545,11.7341711 L182.878223,11.7341711 C182.74516,11.7341711 182.637167,11.8454284 182.637167,11.9825134 L182.637167,15.4737087 C182.637167,15.6112903 182.74516,15.7220509 182.878223,15.7220509 L189.323088,15.7220509 L189.323088,34.4550032 C189.323088,34.5920881 189.431081,34.7033455 189.564144,34.7033455 L193.446105,34.7033455 C193.579168,34.7033455 193.687161,34.5920881 193.687161,34.4550032 L193.687161,15.7220509 L200.131545,15.7220509 C200.264607,15.7220509 200.3726,15.6112903 200.3726,15.4737087 L200.3726,11.9825134 C200.3726,11.8454284 200.264607,11.7341711 200.131545,11.7341711" id="Fill-17" fill="#00AAA8"></path>
                            <path d="M218.505438,30.6518404 L207.624665,30.6518404 L207.624665,24.8004004 L217.396582,24.8004004 C217.530127,24.8004004 217.637638,24.6891431 217.637638,24.5520581 L217.637638,21.1870207 C217.637638,21.0499358 217.530127,20.9386785 217.396582,20.9386785 L207.624665,20.9386785 L207.624665,15.7220012 L217.951492,15.7220012 C218.084555,15.7220012 218.192548,15.6112406 218.192548,15.473659 L218.192548,11.9824637 C218.192548,11.8453788 218.084555,11.7341215 217.951492,11.7341215 L203.501648,11.7341215 C203.368585,11.7341215 203.260592,11.8453788 203.260592,11.9824637 L203.260592,34.4549535 C203.260592,34.5925351 203.368585,34.7032958 203.501648,34.7032958 L218.505438,34.7032958 C218.638501,34.7032958 218.746494,34.5925351 218.746494,34.4549535 L218.746494,30.9001826 C218.746494,30.7630977 218.638501,30.6518404 218.505438,30.6518404" id="Fill-19" fill="#00AAA8"></path>
                            <g id="Group-23" transform="translate(221.771261, 11.423743)">
                                <mask id="mask-2" fill="white">
                                    <use xlink:href="#path-1"></use>
                                </mask>
                                <g id="Clip-22"></g>
                                <path d="M4.64668645,4.17185172 L7.91781255,4.17185172 C8.39317443,4.17185172 8.89408821,4.21357322 9.40512633,4.29552616 C9.89880845,4.37549236 10.3437973,4.52648445 10.7285222,4.74403226 C11.1050513,4.9571099 11.41987,5.24717365 11.6643005,5.60528317 C11.9010172,5.95296231 12.021063,6.41239547 12.021063,6.97017215 C12.021063,7.5930145 11.8899287,8.10658627 11.631517,8.49698028 C11.367802,8.89432787 11.030324,9.20326563 10.6272788,9.4153499 C10.2102524,9.63538113 9.73248,9.78786327 9.20794276,9.86733279 C8.6660495,9.94928573 8.1178888,9.99100723 7.57888821,9.99100723 L4.64668645,9.99100723 L4.64668645,4.17185172 Z M17.1830301,22.903314 L11.527863,13.2259133 C12.9631087,12.8355193 14.1240331,12.138671 14.9826735,11.1512622 C15.9136307,10.0828939 16.3856178,8.68721044 16.3856178,7.00195996 C16.3856178,5.78110948 16.1469727,4.72565493 15.6764319,3.86440402 C15.2068554,3.00861664 14.5743252,2.30680145 13.7961973,1.77932252 C13.0253011,1.25780381 12.1324307,0.877343487 11.1441023,0.649365305 C10.1654161,0.42436723 9.1423756,0.310626481 8.10294334,0.310626481 L0.523669443,0.310626481 C0.390606686,0.310626481 0.282613724,0.421387123 0.282613724,0.558968727 L0.282613724,23.0314586 C0.282613724,23.1685435 0.390606686,23.2798008 0.523669443,23.2798008 L4.40563073,23.2798008 C4.53869349,23.2798008 4.64668645,23.1685435 4.64668645,23.0314586 L4.64668645,13.7573657 L7.09725889,13.7573657 L12.081809,23.1506628 C12.1242348,23.2301324 12.2052296,23.2798008 12.2929738,23.2798008 L16.9762043,23.2798008 C17.0634665,23.2798008 17.143497,23.2316224 17.1864049,23.153643 C17.2293128,23.0756635 17.2278665,22.9798034 17.1830301,22.903314 L17.1830301,22.903314 Z" id="Fill-21" fill="#00AAA8" mask="url(#mask-2)"></path>
                            </g>
                        </g>
                    </g>
                </g>
            </g>
        </g>
    </g>
</svg>